<?xml version="1.0" encoding="UTF-8"?>
<svg width="1200pt" height="1200pt" version="1.1" viewBox="0 0 1200 1200" xmlns="http://www.w3.org/2000/svg">
 <g>
  <path d="m170.75 852.77 77.242-59.555-44.977-18.695-31.668 76.176c-0.28516 0.67969-0.37891 1.3906-0.59766 2.0742z"/>
  <path d="m383.71 718.87-104.53 80.605 37.094 48.324h166.39z"/>
  <path d="m260.16 814.15-43.656 33.648h69.492z"/>
  <path d="m269.9 776.32 120.43-92.855-127.44-52.98-50.664 121.87z"/>
  <path d="m483.43 99.996-31.668 76.176 224.39 93.289 31.668-76.188c5.0898-12.215-0.73047-26.293-12.938-31.379l-180.08-74.859c-12.215-5.0625-26.281 0.72266-31.367 12.961z"/>
  <path d="m302.76 945.3c-26.473 0-48 21.527-48 48 0 26.473 21.527 48 48 48 26.473 0 48-21.527 48-48 0-26.473-21.531-48-48-48z"/>
  <path d="m1006.5 871.8h-813c-13.234 0-24 10.766-24 24v195c0 13.234 10.766 24 24 24h813c13.234 0 24-10.766 24-24v-195c0-13.227-10.766-24-24-24zm-703.74 193.5c-39.707 0-72-32.293-72-72s32.293-72 72-72 72 32.293 72 72-32.293 72-72 72zm643.74-6h-24v-132h24z"/>
  <path d="m872.3 372.49c-3.8984-5.0898-9.5508-8.3398-15.898-9.1797-6.3828-0.86328-12.66 0.85156-17.746 4.7539l-65.316 50.375 147.83 192.64 65.461-50.242c10.488-8.0508 12.469-23.16 4.4141-33.648z"/>
  <path d="m654.64 815.65-147.4-192.02-104.53 80.602 110.2 143.57h99.84z"/>
  <path d="m797.41 706.05 104.73-80.363-147.82-192.61-104.54 80.617z"/>
  <path d="m551.58 559.12 6.1094-4.707 49.367-118.75-224.39-93.289-50.734 122.03z"/>
  <path d="m666.93 291.61-50.676 121.89-224.4-93.293 50.676-121.89z"/>
  <path d="m412.25 666.56 117.59-90.684-207.12-89.316-50.602 121.75z"/>
  <path d="m526.25 608.96 147.43 192.07 104.7-80.363-147.6-192.32z"/>
 </g>
</svg>
