<?xml version="1.0" encoding="UTF-8"?>
<svg width="1200pt" height="1200pt" version="1.1" viewBox="0 0 1200 1200" xmlns="http://www.w3.org/2000/svg">
 <g>
  <path d="m1066.7 200h-83.336v-33.332c0-23.82-12.707-45.828-33.332-57.738-20.625-11.906-46.039-11.906-66.668 0-20.625 11.91-33.332 33.918-33.332 57.738v33.332h-183.33v-33.332c0-23.82-12.707-45.828-33.336-57.738-20.625-11.906-46.039-11.906-66.664 0-20.629 11.91-33.336 33.918-33.336 57.738v33.332h-183.33v-33.332c0-23.82-12.707-45.828-33.332-57.738-20.629-11.906-46.043-11.906-66.668 0-20.625 11.91-33.332 33.918-33.332 57.738v33.332h-83.336c-22.094 0.027344-43.273 8.8125-58.895 24.438-15.625 15.621-24.41 36.801-24.438 58.895v733.34c0.027344 22.094 8.8125 43.273 24.438 58.895 15.621 15.625 36.801 24.41 58.895 24.438h933.34c22.094-0.027344 43.273-8.8125 58.895-24.438 15.625-15.621 24.41-36.801 24.438-58.895v-733.34c-0.027344-22.094-8.8125-43.273-24.438-58.895-15.621-15.625-36.801-24.41-58.895-24.438zm50 816.67c-0.015625 13.254-5.2891 25.965-14.66 35.34-9.375 9.3711-22.086 14.645-35.34 14.66h-933.34c-13.254-0.015625-25.965-5.2891-35.34-14.66-9.3711-9.375-14.645-22.086-14.66-35.34v-583.34h666.67c5.9531 0 11.457-3.1758 14.434-8.332 2.9766-5.1562 2.9766-11.512 0-16.668-2.9766-5.1562-8.4805-8.332-14.434-8.332h-666.67v-116.67c0.015625-13.254 5.2891-25.965 14.66-35.34 9.375-9.3711 22.086-14.645 35.34-14.66h83.332v33.332l0.003907 0.003907c0.015625 17.676 7.0469 34.621 19.547 47.117 12.496 12.5 29.441 19.531 47.117 19.547 5.957 0 11.457-3.1758 14.434-8.332 2.9805-5.1562 2.9805-11.512 0-16.668-2.9766-5.1562-8.4766-8.332-14.434-8.332-8.8359-0.011719-17.309-3.5234-23.559-9.7734s-9.7617-14.723-9.7734-23.559v-100c0-11.91 6.3516-22.914 16.668-28.867 10.312-5.957 23.02-5.957 33.332 0 10.312 5.9531 16.668 16.957 16.668 28.867v50c-0.003907 4.418 1.7539 8.6602 4.8789 11.785s7.3672 4.8828 11.785 4.8789h200v33.336c0.019531 17.676 7.0508 34.621 19.547 47.117 12.5 12.5 29.445 19.531 47.121 19.547 5.9531 0 11.457-3.1758 14.434-8.332 2.9766-5.1562 2.9766-11.512 0-16.668-2.9766-5.1562-8.4805-8.332-14.434-8.332-8.8359-0.011719-17.309-3.5234-23.559-9.7734s-9.7656-14.723-9.7734-23.559v-100c0-11.91 6.3516-22.914 16.664-28.867 10.316-5.957 23.02-5.957 33.336 0 10.312 5.9531 16.664 16.957 16.664 28.867v50c0 4.418 1.7539 8.6602 4.8828 11.785 3.125 3.125 7.3633 4.8828 11.785 4.8789h200v33.336c0.019531 17.676 7.0469 34.621 19.547 47.117 12.5 12.5 29.445 19.531 47.121 19.547 5.9531 0 11.457-3.1758 14.434-8.332 2.9766-5.1562 2.9766-11.512 0-16.668-2.9766-5.1562-8.4805-8.332-14.434-8.332-8.8398-0.011719-17.312-3.5234-23.559-9.7734-6.25-6.25-9.7656-14.723-9.7773-23.559v-100c0-11.91 6.3555-22.914 16.668-28.867 10.312-5.957 23.02-5.957 33.332 0 10.316 5.9531 16.668 16.957 16.668 28.867v50c0 4.418 1.7539 8.6602 4.8789 11.785 3.1289 3.125 7.3672 4.8828 11.789 4.8789h100c13.254 0.015625 25.965 5.2891 35.34 14.66 9.3711 9.375 14.645 22.086 14.66 35.34z"/>
  <path d="m816.67 433.33h166.66c5.957 0 11.457-3.1758 14.434-8.332 2.9805-5.1562 2.9805-11.512 0-16.668-2.9766-5.1562-8.4766-8.332-14.434-8.332h-166.66c-5.957 0-11.457 3.1758-14.434 8.332-2.9805 5.1562-2.9805 11.512 0 16.668 2.9766 5.1562 8.4766 8.332 14.434 8.332z"/>
  <path d="m1066.7 400h-16.668c-5.9531 0-11.457 3.1758-14.434 8.332-2.9766 5.1562-2.9766 11.512 0 16.668 2.9766 5.1562 8.4805 8.332 14.434 8.332h16.668c5.9531 0 11.457-3.1758 14.434-8.332 2.9766-5.1562 2.9766-11.512 0-16.668-2.9766-5.1562-8.4805-8.332-14.434-8.332z"/>
  <path d="m780.73 682.68-0.16016-0.14453-86.031-78.211h0.003906c-4.043-3.6719-9.6289-5.1328-14.953-3.9062-5.3203 1.2305-9.7031 4.9883-11.73 10.059l-133.33 333.33v0.003906c-2.0547 5.1328-1.4258 10.953 1.6758 15.531 3.1016 4.5781 8.2695 7.3203 13.801 7.3203h500c4.5117 0 8.8281-1.8281 11.965-5.0703 3.1406-3.2383 4.832-7.6094 4.6875-12.117-0.14062-4.5078-2.1016-8.7656-5.4375-11.801zm74.152 250.65 43.961-98.246 25.996 23.637-33.465 74.609zm-102.33 0 73.578-164.35 46.762 42.512-54.516 121.84zm-72.984 0 94.723-211.48 25.895 23.539-84.145 187.94zm10.332-288.2 58.434 53.121-105.29 235.08h-68.418zm238.02 288.2 22.883-51.016 56.117 51.016z"/>
  <path d="m319.49 647.18-7.8789-45.898 33.355-32.52c2.9844-2.9062 4.7695-6.8281 5.0039-10.988s-1.0938-8.2539-3.7305-11.48c-2.6367-3.2266-6.3867-5.3477-10.508-5.9492l-46.094-6.707-20.621-41.762c-3.1172-5.2969-8.8047-8.5469-14.945-8.5469-6.1445 0-11.828 3.25-14.945 8.5469l-20.605 41.766-46.102 6.707v-0.003906c-4.125 0.59766-7.875 2.7227-10.512 5.9492-2.6328 3.2266-3.9648 7.3242-3.7266 11.484 0.23438 4.1602 2.0234 8.0781 5.0078 10.984l33.352 32.52-7.8711 45.898c-0.70703 4.1094 0.15234 8.332 2.4062 11.836 2.2539 3.5078 5.7422 6.0391 9.7734 7.0977 4.0312 1.0625 8.3125 0.57031 12-1.3711l41.227-21.664 41.227 21.664c3.6875 1.9414 7.9688 2.4258 12 1.3672 4.0273-1.0625 7.5156-3.5938 9.7695-7.0977 2.2578-3.5039 3.1172-7.7227 2.418-11.832zm-37.418-63.656h-0.003907c-3.9219 3.832-5.7109 9.3438-4.793 14.746l3.6445 21.258-19.09-10.027c-4.8516-2.5586-10.656-2.5586-15.508 0l-19.094 10.027 3.6445-21.258c0.93359-5.4023-0.85938-10.922-4.793-14.746l-15.438-15.055 21.348-3.1094c5.4258-0.78516 10.121-4.1953 12.547-9.1133l9.5391-19.336 9.5547 19.336c2.4219 4.918 7.1133 8.3281 12.539 9.1133l21.348 3.1094z"/>
  <path d="m483.33 566.67c4.4219 0 8.6602-1.7539 11.789-4.8828 3.125-3.125 4.8789-7.3633 4.8789-11.785v-16.668c0-5.9531-3.1758-11.457-8.332-14.434-5.1562-2.9766-11.512-2.9766-16.668 0-5.1562 2.9766-8.332 8.4805-8.332 14.434v16.668c-0.003907 4.4219 1.7539 8.6602 4.8789 11.785 3.125 3.1289 7.3672 4.8828 11.785 4.8828z"/>
  <path d="m516.67 600h16.668-0.003907c5.957 0 11.457-3.1758 14.434-8.332 2.9805-5.1562 2.9805-11.512 0-16.668-2.9766-5.1562-8.4766-8.332-14.434-8.332h-16.664c-5.957 0-11.457 3.1758-14.434 8.332-2.9805 5.1562-2.9805 11.512 0 16.668 2.9766 5.1562 8.4766 8.332 14.434 8.332z"/>
  <path d="m433.33 600h16.668c5.9531 0 11.457-3.1758 14.434-8.332 2.9766-5.1562 2.9766-11.512 0-16.668-2.9766-5.1562-8.4805-8.332-14.434-8.332h-16.668c-5.9531 0-11.457 3.1758-14.434 8.332-2.9766 5.1562-2.9766 11.512 0 16.668 2.9766 5.1562 8.4805 8.332 14.434 8.332z"/>
  <path d="m483.33 600c-4.418 0-8.6602 1.7539-11.785 4.8789-3.125 3.1289-4.8828 7.3672-4.8789 11.789v16.668-0.003907c0 5.957 3.1758 11.457 8.332 14.434 5.1562 2.9805 11.512 2.9805 16.668 0 5.1562-2.9766 8.332-8.4766 8.332-14.434v-16.664c0-4.4219-1.7539-8.6602-4.8789-11.789-3.1289-3.125-7.3672-4.8789-11.789-4.8789z"/>
  <path d="m250 750c-13.262 0-25.98 5.2695-35.355 14.645s-14.645 22.094-14.645 35.355 5.2695 25.98 14.645 35.355 22.094 14.645 35.355 14.645 25.98-5.2695 35.355-14.645 14.645-22.094 14.645-35.355c-0.015625-13.258-5.2852-25.965-14.66-35.34s-22.082-14.645-35.34-14.66zm0 66.668c-4.4219 0-8.6602-1.7578-11.785-4.8828s-4.8828-7.3633-4.8828-11.785 1.7578-8.6602 4.8828-11.785 7.3633-4.8828 11.785-4.8828 8.6602 1.7578 11.785 4.8828 4.8828 7.3633 4.8828 11.785c-0.003907 4.418-1.7617 8.6562-4.8867 11.781s-7.3633 4.8828-11.781 4.8867z"/>
  <path d="m383.33 883.33v16.668c0 5.9531 3.1797 11.457 8.3359 14.434 5.1562 2.9766 11.508 2.9766 16.664 0 5.1562-2.9766 8.3359-8.4805 8.3359-14.434v-16.668c0-5.9531-3.1797-11.457-8.3359-14.434-5.1562-2.9766-11.508-2.9766-16.664 0-5.1562 2.9766-8.3359 8.4805-8.3359 14.434z"/>
  <path d="m450 916.67h-16.668c-5.9531 0-11.457 3.1758-14.434 8.332-2.9766 5.1562-2.9766 11.512 0 16.668 2.9766 5.1562 8.4805 8.332 14.434 8.332h16.668c5.9531 0 11.457-3.1758 14.434-8.332 2.9766-5.1562 2.9766-11.512 0-16.668-2.9766-5.1562-8.4805-8.332-14.434-8.332z"/>
  <path d="m366.67 916.67h-16.668c-5.9531 0-11.457 3.1758-14.434 8.332-2.9766 5.1562-2.9766 11.512 0 16.668 2.9766 5.1562 8.4805 8.332 14.434 8.332h16.668c5.9531 0 11.457-3.1758 14.434-8.332 2.9766-5.1562 2.9766-11.512 0-16.668-2.9766-5.1562-8.4805-8.332-14.434-8.332z"/>
  <path d="m400 950c-4.4219 0-8.6602 1.7539-11.785 4.8789-3.1289 3.1289-4.8828 7.3672-4.8828 11.789v16.668-0.003907c0 5.957 3.1797 11.457 8.3359 14.434 5.1562 2.9805 11.508 2.9805 16.664 0 5.1562-2.9766 8.3359-8.4766 8.3359-14.434v-16.664c0-4.4219-1.7539-8.6602-4.8828-11.789-3.125-3.125-7.3633-4.8789-11.785-4.8789z"/>
  <path d="m540.75 647.2 50 33.332v0.003906c3.6797 2.5 8.2031 3.4297 12.57 2.582 4.3672-0.85156 8.2109-3.4141 10.68-7.1133 2.4648-3.7031 3.3516-8.2383 2.457-12.594-0.89063-4.3594-3.4922-8.1797-7.2148-10.609l-50-33.332v-0.003906c-4.957-3.2305-11.25-3.5977-16.547-0.95703-5.293 2.6367-8.793 7.8867-9.1914 13.789-0.40234 5.9023 2.3594 11.574 7.2461 14.902z"/>
  <path d="m361.39 682.47 200 66.668c4.1914 1.4102 8.7773 1.0938 12.738-0.87891 3.9609-1.9727 6.9766-5.4414 8.375-9.6367 1.4023-4.1992 1.0742-8.7812-0.90625-12.738-1.9844-3.957-5.4609-6.9609-9.6602-8.3516l-200-66.668c-4.1953-1.4102-8.7812-1.0938-12.742 0.87891-3.9609 1.9727-6.9727 5.4414-8.375 9.6367-1.3984 4.1992-1.0742 8.7812 0.91016 12.738 1.9805 3.957 5.457 6.9609 9.6602 8.3516z"/>
  <path d="m533.35 833.33c5.7852-0.003906 11.156-3.0117 14.184-7.9414 3.0312-4.9336 3.2812-11.082 0.66797-16.246-2.6133-5.1641-7.7188-8.6016-13.488-9.0781l-200-16.668c-4.4141-0.42969-8.8203 0.94531-12.207 3.8125-3.3906 2.8633-5.4766 6.9766-5.7852 11.406-0.36719 4.4023 1.0312 8.7734 3.8867 12.148 2.8555 3.3711 6.9375 5.4727 11.34 5.8359l200 16.668c0.46484 0.042969 0.93359 0.066407 1.4023 0.0625z"/>
  <path d="m549.14 861.39c-1.3906-4.1992-4.3984-7.668-8.3555-9.6445-3.957-1.9766-8.5352-2.293-12.73-0.88672l-50 16.668c-4.1992 1.3906-7.6758 4.3945-9.6602 8.3516-1.9805 3.957-2.3086 8.5391-0.90625 12.738 1.3984 4.1953 4.4141 7.6641 8.375 9.6367 3.9609 1.9727 8.5469 2.2891 12.738 0.87891l50-16.668c4.1953-1.3945 7.6641-4.3984 9.6406-8.3516 1.9766-3.9531 2.3008-8.5312 0.89844-12.723z"/>
 </g>
</svg>
