<svg xmlns="http://www.w3.org/2000/svg" xmlns:xlink="http://www.w3.org/1999/xlink" width="500" zoomAndPan="magnify" viewBox="0 0 375 374.999991" height="500" preserveAspectRatio="xMidYMid meet" version="1.0"><defs><g/><clipPath id="5d2a75030e"><path d="M 90 87 L 304 87 L 304 265 L 90 265 Z M 90 87 " clip-rule="nonzero"/></clipPath><clipPath id="757dbfd477"><path d="M 76.695312 94.421875 L 281.457031 55.128906 L 317.785156 244.421875 L 113.019531 283.714844 Z M 76.695312 94.421875 " clip-rule="nonzero"/></clipPath><clipPath id="6027f401a1"><path d="M 76.695312 94.421875 L 281.457031 55.128906 L 317.785156 244.421875 L 113.019531 283.714844 Z M 76.695312 94.421875 " clip-rule="nonzero"/></clipPath><clipPath id="445251505c"><path d="M 196 99 L 230.632812 99 L 230.632812 136.109375 L 196 136.109375 Z M 196 99 " clip-rule="nonzero"/></clipPath><clipPath id="2fc475f2c6"><path d="M 190.882812 91 L 208 91 L 208 110 L 190.882812 110 Z M 190.882812 91 " clip-rule="nonzero"/></clipPath><clipPath id="f6715388a8"><path d="M 211 83.609375 L 224 83.609375 L 224 97 L 211 97 Z M 211 83.609375 " clip-rule="nonzero"/></clipPath></defs><rect x="-37.5" width="450" fill="#ffffff" y="-37.499999" height="449.999989" fill-opacity="1"/><rect x="-37.5" width="450" fill="#ffffff" y="-37.499999" height="449.999989" fill-opacity="1"/><rect x="-37.5" width="450" fill="#253a57" y="-37.499999" height="449.999989" fill-opacity="1"/><g clip-path="url(#5d2a75030e)"><g clip-path="url(#757dbfd477)"><g clip-path="url(#6027f401a1)"><path fill="#ffd400" d="M 118.882812 121.039062 C 116.660156 109.457031 116.300781 98.042969 117.84375 87.046875 C 96.582031 110.960938 86.257812 144.261719 92.78125 178.246094 C 103.890625 236.140625 160.019531 274.171875 217.949219 263.058594 C 264.292969 254.164062 298.039062 216.371094 303.871094 171.925781 C 288.851562 188.902344 268.230469 201.210938 244.304688 205.800781 C 186.125 216.964844 129.992188 178.933594 118.882812 121.039062 Z M 118.882812 121.039062 " fill-opacity="1" fill-rule="nonzero"/></g></g></g><g fill="#fffefa" fill-opacity="1"><g transform="translate(125.475255, 93.473634)"><g><path d="M 0.109375 10.5625 C -0.171875 8.695312 -0.144531 7.210938 0.1875 6.109375 C 0.53125 5.003906 1.109375 4.125 1.921875 3.46875 C 2.734375 2.820312 3.757812 2.351562 5 2.0625 C 6.25 1.78125 7.644531 1.523438 9.1875 1.296875 C 10.425781 1.109375 11.675781 0.960938 12.9375 0.859375 C 14.195312 0.753906 15.546875 0.679688 16.984375 0.640625 C 16.929688 0.265625 16.882812 -0.0234375 16.84375 -0.234375 C 16.800781 -0.441406 16.769531 -0.613281 16.75 -0.75 C 16.625 -1.582031 16.695312 -2.332031 16.96875 -3 C 17.25 -3.675781 17.769531 -4.070312 18.53125 -4.1875 C 19.007812 -4.25 19.457031 -4.128906 19.875 -3.828125 C 20.289062 -3.535156 20.664062 -3.128906 21 -2.609375 C 21.34375 -2.097656 21.640625 -1.53125 21.890625 -0.90625 C 22.140625 -0.289062 22.34375 0.300781 22.5 0.875 C 23.226562 0.757812 24.046875 0.6875 24.953125 0.65625 C 25.859375 0.632812 26.71875 0.703125 27.53125 0.859375 C 28.34375 1.023438 29.046875 1.300781 29.640625 1.6875 C 30.242188 2.082031 30.597656 2.65625 30.703125 3.40625 C 30.765625 3.8125 30.691406 4.195312 30.484375 4.5625 C 30.285156 4.9375 30.007812 5.253906 29.65625 5.515625 C 29.3125 5.785156 28.910156 6.007812 28.453125 6.1875 C 27.992188 6.363281 27.539062 6.484375 27.09375 6.546875 C 26.570312 6.617188 26.03125 6.65625 25.46875 6.65625 C 24.90625 6.664062 24.203125 6.617188 23.359375 6.515625 C 23.472656 6.972656 23.550781 7.273438 23.59375 7.421875 C 23.632812 7.566406 23.664062 7.707031 23.6875 7.84375 C 23.75 8.289062 23.773438 8.757812 23.765625 9.25 C 23.753906 9.75 23.6875 10.21875 23.5625 10.65625 C 23.4375 11.09375 23.242188 11.460938 22.984375 11.765625 C 22.722656 12.066406 22.378906 12.25 21.953125 12.3125 C 21.492188 12.382812 21.050781 12.253906 20.625 11.921875 C 20.195312 11.597656 19.804688 11.164062 19.453125 10.625 C 19.097656 10.09375 18.800781 9.507812 18.5625 8.875 C 18.320312 8.25 18.140625 7.644531 18.015625 7.0625 C 16.921875 7.082031 15.914062 7.125 15 7.1875 C 14.082031 7.25 13.15625 7.304688 12.21875 7.359375 C 11.769531 7.378906 11.3125 7.398438 10.84375 7.421875 C 10.382812 7.453125 9.914062 7.503906 9.4375 7.578125 C 9.101562 7.628906 8.707031 7.703125 8.25 7.796875 C 7.800781 7.890625 7.375 8.046875 6.96875 8.265625 C 6.570312 8.484375 6.25 8.785156 6 9.171875 C 5.75 9.554688 5.664062 10.046875 5.75 10.640625 C 5.800781 11.015625 5.890625 11.390625 6.015625 11.765625 C 6.140625 12.148438 6.234375 12.539062 6.296875 12.9375 C 6.398438 13.625 6.234375 14.148438 5.796875 14.515625 C 5.367188 14.890625 4.789062 15.128906 4.0625 15.234375 C 3.5 15.316406 2.988281 15.222656 2.53125 14.953125 C 2.082031 14.691406 1.695312 14.332031 1.375 13.875 C 1.0625 13.414062 0.789062 12.882812 0.5625 12.28125 C 0.332031 11.675781 0.179688 11.101562 0.109375 10.5625 Z M 0.109375 10.5625 "/></g></g></g><g fill="#fffefa" fill-opacity="1"><g transform="translate(129.646029, 115.335376)"><g><path d="M 28.765625 -1.90625 C 28.410156 -1.78125 28.0625 -1.757812 27.71875 -1.84375 C 27.375 -1.9375 27.046875 -2.097656 26.734375 -2.328125 C 26.421875 -2.554688 26.144531 -2.820312 25.90625 -3.125 C 25.664062 -3.4375 25.492188 -3.75 25.390625 -4.0625 C 25.210938 -4.5625 25.179688 -5.039062 25.296875 -5.5 C 25.421875 -5.957031 25.75 -6.28125 26.28125 -6.46875 C 26.65625 -6.601562 27.015625 -6.625 27.359375 -6.53125 C 27.710938 -6.445312 28.035156 -6.300781 28.328125 -6.09375 C 28.617188 -5.882812 28.875 -5.617188 29.09375 -5.296875 C 29.3125 -4.984375 29.476562 -4.664062 29.59375 -4.34375 C 29.757812 -3.875 29.800781 -3.398438 29.71875 -2.921875 C 29.632812 -2.441406 29.316406 -2.101562 28.765625 -1.90625 Z M 16.109375 2.90625 C 15.765625 3.019531 15.398438 3.144531 15.015625 3.28125 C 14.628906 3.414062 14.253906 3.53125 13.890625 3.625 C 13.453125 3.757812 12.875 3.953125 12.15625 4.203125 C 11.445312 4.453125 10.671875 4.695312 9.828125 4.9375 C 8.992188 5.1875 8.128906 5.398438 7.234375 5.578125 C 6.347656 5.765625 5.507812 5.851562 4.71875 5.84375 C 3.925781 5.84375 3.238281 5.710938 2.65625 5.453125 C 2.070312 5.191406 1.65625 4.753906 1.40625 4.140625 C 1.21875 3.679688 1.265625 3.21875 1.546875 2.75 C 1.835938 2.28125 2.265625 1.828125 2.828125 1.390625 C 3.390625 0.953125 4.046875 0.539062 4.796875 0.15625 C 5.554688 -0.21875 6.296875 -0.554688 7.015625 -0.859375 C 7.742188 -1.171875 8.414062 -1.4375 9.03125 -1.65625 C 9.65625 -1.875 10.125 -2.035156 10.4375 -2.140625 C 10.820312 -2.273438 11.382812 -2.472656 12.125 -2.734375 C 12.875 -3.003906 13.679688 -3.265625 14.546875 -3.515625 C 15.410156 -3.765625 16.300781 -3.972656 17.21875 -4.140625 C 18.144531 -4.304688 19.019531 -4.382812 19.84375 -4.375 C 20.664062 -4.375 21.375 -4.238281 21.96875 -3.96875 C 22.5625 -3.695312 22.972656 -3.238281 23.203125 -2.59375 C 23.429688 -1.914062 23.269531 -1.285156 22.71875 -0.703125 C 22.175781 -0.117188 21.484375 0.414062 20.640625 0.90625 C 19.804688 1.40625 18.953125 1.820312 18.078125 2.15625 C 17.203125 2.5 16.546875 2.75 16.109375 2.90625 Z M 16.109375 2.90625 "/></g></g></g><g fill="#fffefa" fill-opacity="1"><g transform="translate(135.56679, 131.302202)"><g><path d="M 5.609375 11.203125 C 5.367188 10.828125 5.351562 10.414062 5.5625 9.96875 C 5.78125 9.53125 6.078125 9.117188 6.453125 8.734375 C 6.828125 8.347656 7.234375 7.992188 7.671875 7.671875 C 8.117188 7.347656 8.46875 7.109375 8.71875 6.953125 C 9.394531 6.535156 10.097656 6.160156 10.828125 5.828125 C 11.554688 5.492188 12.289062 5.164062 13.03125 4.84375 C 13.769531 4.53125 14.5 4.207031 15.21875 3.875 C 15.945312 3.539062 16.648438 3.164062 17.328125 2.75 C 17.597656 2.582031 17.882812 2.382812 18.1875 2.15625 C 18.5 1.9375 18.769531 1.703125 19 1.453125 C 19.226562 1.203125 19.378906 0.929688 19.453125 0.640625 C 19.523438 0.347656 19.46875 0.0546875 19.28125 -0.234375 C 19.15625 -0.441406 18.851562 -0.566406 18.375 -0.609375 C 17.894531 -0.648438 17.378906 -0.648438 16.828125 -0.609375 C 16.285156 -0.566406 15.757812 -0.488281 15.25 -0.375 C 14.738281 -0.269531 14.378906 -0.15625 14.171875 -0.03125 C 13.671875 0.28125 13.171875 0.59375 12.671875 0.90625 C 12.179688 1.226562 11.675781 1.546875 11.15625 1.859375 L 9.1875 3.078125 C 8.757812 3.316406 8.316406 3.539062 7.859375 3.75 C 7.410156 3.957031 6.953125 4.144531 6.484375 4.3125 C 6.046875 4.507812 5.597656 4.648438 5.140625 4.734375 C 4.679688 4.828125 4.242188 4.851562 3.828125 4.8125 C 3.410156 4.78125 3.019531 4.664062 2.65625 4.46875 C 2.300781 4.28125 2.003906 3.988281 1.765625 3.59375 C 1.484375 3.144531 1.394531 2.679688 1.5 2.203125 C 1.613281 1.734375 1.84375 1.265625 2.1875 0.796875 C 2.539062 0.335938 2.976562 -0.109375 3.5 -0.546875 C 4.03125 -0.984375 4.5625 -1.390625 5.09375 -1.765625 C 5.632812 -2.148438 6.140625 -2.472656 6.609375 -2.734375 C 7.078125 -3.003906 7.453125 -3.222656 7.734375 -3.390625 L 9.3125 -4.375 C 10.175781 -4.90625 11.015625 -5.441406 11.828125 -5.984375 C 12.640625 -6.535156 13.46875 -7.070312 14.3125 -7.59375 C 14.757812 -7.875 15.332031 -8.21875 16.03125 -8.625 C 16.738281 -9.039062 17.472656 -9.375 18.234375 -9.625 C 19.003906 -9.882812 19.734375 -9.976562 20.421875 -9.90625 C 21.117188 -9.84375 21.6875 -9.457031 22.125 -8.75 C 22.3125 -8.445312 22.378906 -8.109375 22.328125 -7.734375 C 22.285156 -7.359375 22.175781 -6.984375 22 -6.609375 C 21.832031 -6.234375 21.613281 -5.878906 21.34375 -5.546875 C 21.070312 -5.210938 20.835938 -4.941406 20.640625 -4.734375 C 21.097656 -4.679688 21.566406 -4.59375 22.046875 -4.46875 C 22.523438 -4.351562 22.992188 -4.171875 23.453125 -3.921875 C 23.921875 -3.679688 24.363281 -3.363281 24.78125 -2.96875 C 25.207031 -2.570312 25.609375 -2.070312 25.984375 -1.46875 C 26.691406 -0.3125 26.96875 0.753906 26.8125 1.734375 C 26.664062 2.722656 26.269531 3.617188 25.625 4.421875 C 24.988281 5.234375 24.21875 5.960938 23.3125 6.609375 C 22.40625 7.265625 21.566406 7.832031 20.796875 8.3125 C 20.410156 8.539062 19.820312 8.851562 19.03125 9.25 C 18.238281 9.644531 17.335938 10.050781 16.328125 10.46875 C 15.316406 10.882812 14.253906 11.265625 13.140625 11.609375 C 12.023438 11.953125 10.96875 12.195312 9.96875 12.34375 C 8.976562 12.5 8.09375 12.492188 7.3125 12.328125 C 6.539062 12.171875 5.972656 11.796875 5.609375 11.203125 Z M 5.609375 11.203125 "/></g></g></g><g fill="#fffefa" fill-opacity="1"><g transform="translate(150.655149, 153.915949)"><g><path d="M -0.5625 15.1875 C -1.03125 14.757812 -1.5 14.195312 -1.96875 13.5 C -2.4375 12.800781 -2.804688 12.070312 -3.078125 11.3125 C -3.347656 10.550781 -3.484375 9.8125 -3.484375 9.09375 C -3.492188 8.375 -3.265625 7.757812 -2.796875 7.25 C -2.617188 7.050781 -2.390625 6.894531 -2.109375 6.78125 C -1.835938 6.675781 -1.550781 6.625 -1.25 6.625 C -0.957031 6.632812 -0.671875 6.6875 -0.390625 6.78125 C -0.117188 6.875 0.125 7.015625 0.34375 7.203125 C 0.582031 7.421875 0.78125 7.671875 0.9375 7.953125 C 1.101562 8.234375 1.257812 8.53125 1.40625 8.84375 C 1.570312 9.164062 1.738281 9.476562 1.90625 9.78125 C 2.082031 10.09375 2.304688 10.375 2.578125 10.625 C 3.066406 11.070312 3.640625 11.289062 4.296875 11.28125 C 4.960938 11.269531 5.671875 11.113281 6.421875 10.8125 C 7.179688 10.519531 7.9375 10.113281 8.6875 9.59375 C 9.4375 9.082031 10.148438 8.539062 10.828125 7.96875 C 11.515625 7.40625 12.132812 6.859375 12.6875 6.328125 C 13.25 5.804688 13.703125 5.378906 14.046875 5.046875 C 12.410156 5.453125 11 5.625 9.8125 5.5625 C 8.625 5.5 7.546875 5.019531 6.578125 4.125 C 5.828125 3.445312 5.316406 2.695312 5.046875 1.875 C 4.773438 1.050781 4.675781 0.207031 4.75 -0.65625 C 4.832031 -1.519531 5.046875 -2.398438 5.390625 -3.296875 C 5.734375 -4.191406 6.164062 -5.046875 6.6875 -5.859375 C 7.207031 -6.679688 7.753906 -7.445312 8.328125 -8.15625 C 8.910156 -8.863281 9.476562 -9.476562 10.03125 -10 C 10.445312 -10.425781 11.015625 -10.941406 11.734375 -11.546875 C 12.460938 -12.160156 13.226562 -12.710938 14.03125 -13.203125 C 14.832031 -13.691406 15.617188 -14.003906 16.390625 -14.140625 C 17.171875 -14.273438 17.828125 -14.0625 18.359375 -13.5 C 18.703125 -13.132812 18.851562 -12.691406 18.8125 -12.171875 C 18.769531 -11.660156 18.613281 -11.113281 18.34375 -10.53125 C 18.082031 -9.957031 17.738281 -9.363281 17.3125 -8.75 C 16.882812 -8.144531 16.441406 -7.570312 15.984375 -7.03125 C 15.523438 -6.488281 15.085938 -6 14.671875 -5.5625 C 14.265625 -5.132812 13.957031 -4.800781 13.75 -4.5625 C 13.4375 -4.226562 13.132812 -3.890625 12.84375 -3.546875 C 12.5625 -3.203125 12.359375 -2.84375 12.234375 -2.46875 C 12.109375 -2.101562 12.097656 -1.726562 12.203125 -1.34375 C 12.304688 -0.957031 12.578125 -0.554688 13.015625 -0.140625 C 13.535156 0.328125 14.0625 0.570312 14.59375 0.59375 C 15.125 0.613281 15.640625 0.5 16.140625 0.25 C 16.640625 0 17.109375 -0.320312 17.546875 -0.71875 C 17.992188 -1.125 18.394531 -1.523438 18.75 -1.921875 C 19.007812 -2.191406 19.316406 -2.519531 19.671875 -2.90625 C 20.035156 -3.300781 20.414062 -3.707031 20.8125 -4.125 C 21.21875 -4.550781 21.644531 -4.941406 22.09375 -5.296875 C 22.539062 -5.660156 22.992188 -5.945312 23.453125 -6.15625 C 23.921875 -6.363281 24.375 -6.460938 24.8125 -6.453125 C 25.257812 -6.441406 25.675781 -6.257812 26.0625 -5.90625 C 26.550781 -5.445312 26.796875 -4.867188 26.796875 -4.171875 C 26.796875 -3.472656 26.640625 -2.703125 26.328125 -1.859375 C 26.015625 -1.023438 25.585938 -0.171875 25.046875 0.703125 C 24.515625 1.585938 23.953125 2.429688 23.359375 3.234375 C 22.765625 4.046875 22.195312 4.769531 21.65625 5.40625 C 21.125 6.050781 20.695312 6.550781 20.375 6.90625 C 19.625 7.726562 18.738281 8.632812 17.71875 9.625 C 16.707031 10.613281 15.613281 11.585938 14.4375 12.546875 C 13.257812 13.503906 12.015625 14.363281 10.703125 15.125 C 9.390625 15.882812 8.078125 16.429688 6.765625 16.765625 C 5.460938 17.109375 4.1875 17.179688 2.9375 16.984375 C 1.695312 16.785156 0.53125 16.1875 -0.5625 15.1875 Z M -0.5625 15.1875 "/></g></g></g><g fill="#fffefa" fill-opacity="1"><g transform="translate(172.616702, 172.02299)"><g/></g></g><g fill="#fffefa" fill-opacity="1"><g transform="translate(187.237063, 179.875761)"><g><path d="M 9.46875 4.703125 C 7.675781 4.097656 6.363281 3.394531 5.53125 2.59375 C 4.695312 1.789062 4.175781 0.878906 3.96875 -0.140625 C 3.757812 -1.160156 3.804688 -2.285156 4.109375 -3.515625 C 4.421875 -4.753906 4.828125 -6.113281 5.328125 -7.59375 C 5.734375 -8.78125 6.171875 -9.957031 6.640625 -11.125 C 7.117188 -12.289062 7.671875 -13.523438 8.296875 -14.828125 C 7.929688 -14.953125 7.644531 -15.039062 7.4375 -15.09375 C 7.238281 -15.15625 7.070312 -15.207031 6.9375 -15.25 C 6.144531 -15.519531 5.507812 -15.925781 5.03125 -16.46875 C 4.5625 -17.019531 4.445312 -17.660156 4.6875 -18.390625 C 4.84375 -18.847656 5.148438 -19.191406 5.609375 -19.421875 C 6.066406 -19.660156 6.601562 -19.816406 7.21875 -19.890625 C 7.832031 -19.972656 8.472656 -19.984375 9.140625 -19.921875 C 9.804688 -19.859375 10.425781 -19.765625 11 -19.640625 C 11.226562 -20.335938 11.535156 -21.097656 11.921875 -21.921875 C 12.316406 -22.742188 12.769531 -23.476562 13.28125 -24.125 C 13.800781 -24.78125 14.367188 -25.285156 14.984375 -25.640625 C 15.597656 -25.992188 16.265625 -26.050781 16.984375 -25.8125 C 17.378906 -25.675781 17.691406 -25.429688 17.921875 -25.078125 C 18.160156 -24.734375 18.316406 -24.34375 18.390625 -23.90625 C 18.472656 -23.476562 18.488281 -23.019531 18.4375 -22.53125 C 18.382812 -22.050781 18.285156 -21.597656 18.140625 -21.171875 C 17.972656 -20.671875 17.765625 -20.164062 17.515625 -19.65625 C 17.265625 -19.15625 16.898438 -18.550781 16.421875 -17.84375 C 16.878906 -17.738281 17.179688 -17.671875 17.328125 -17.640625 C 17.484375 -17.609375 17.625 -17.566406 17.75 -17.515625 C 18.175781 -17.378906 18.609375 -17.191406 19.046875 -16.953125 C 19.484375 -16.722656 19.867188 -16.453125 20.203125 -16.140625 C 20.535156 -15.835938 20.773438 -15.5 20.921875 -15.125 C 21.078125 -14.75 21.085938 -14.359375 20.953125 -13.953125 C 20.796875 -13.503906 20.472656 -13.164062 19.984375 -12.9375 C 19.503906 -12.707031 18.945312 -12.5625 18.3125 -12.5 C 17.675781 -12.4375 17.019531 -12.4375 16.34375 -12.5 C 15.675781 -12.570312 15.054688 -12.679688 14.484375 -12.828125 C 13.984375 -11.847656 13.554688 -10.929688 13.203125 -10.078125 C 12.847656 -9.234375 12.484375 -8.390625 12.109375 -7.546875 C 11.921875 -7.128906 11.734375 -6.707031 11.546875 -6.28125 C 11.359375 -5.851562 11.1875 -5.410156 11.03125 -4.953125 C 10.925781 -4.628906 10.8125 -4.242188 10.6875 -3.796875 C 10.5625 -3.359375 10.503906 -2.910156 10.515625 -2.453125 C 10.523438 -1.992188 10.648438 -1.566406 10.890625 -1.171875 C 11.128906 -0.773438 11.535156 -0.476562 12.109375 -0.28125 C 12.460938 -0.164062 12.835938 -0.0703125 13.234375 0 C 13.628906 0.0625 14.015625 0.15625 14.390625 0.28125 C 15.046875 0.5 15.4375 0.882812 15.5625 1.4375 C 15.695312 1.988281 15.648438 2.613281 15.421875 3.3125 C 15.242188 3.84375 14.929688 4.25 14.484375 4.53125 C 14.035156 4.8125 13.535156 4.992188 12.984375 5.078125 C 12.429688 5.160156 11.835938 5.160156 11.203125 5.078125 C 10.566406 5.003906 9.988281 4.878906 9.46875 4.703125 Z M 9.46875 4.703125 "/></g></g></g><g fill="#fffefa" fill-opacity="1"><g transform="translate(209.270923, 186.562736)"><g><path d="M 18.46875 -4.171875 C 18.4375 -3.691406 18.367188 -3.066406 18.265625 -2.296875 C 18.171875 -1.523438 18.003906 -0.785156 17.765625 -0.078125 C 17.523438 0.628906 17.1875 1.226562 16.75 1.71875 C 16.3125 2.21875 15.734375 2.441406 15.015625 2.390625 C 14.035156 2.304688 13.304688 1.925781 12.828125 1.25 C 12.359375 0.570312 12.171875 -0.238281 12.265625 -1.1875 C 11.359375 -0.507812 10.351562 -0.00390625 9.25 0.328125 C 8.144531 0.671875 7.039062 0.796875 5.9375 0.703125 C 5.164062 0.640625 4.445312 0.398438 3.78125 -0.015625 C 3.125 -0.441406 2.554688 -0.960938 2.078125 -1.578125 C 1.597656 -2.203125 1.226562 -2.890625 0.96875 -3.640625 C 0.707031 -4.398438 0.609375 -5.140625 0.671875 -5.859375 C 0.765625 -7.117188 1.238281 -8.191406 2.09375 -9.078125 C 2.945312 -9.972656 3.96875 -10.710938 5.15625 -11.296875 C 6.351562 -11.878906 7.609375 -12.316406 8.921875 -12.609375 C 10.234375 -12.910156 11.398438 -13.085938 12.421875 -13.140625 C 12.429688 -13.273438 12.445312 -13.394531 12.46875 -13.5 C 12.488281 -13.601562 12.503906 -13.722656 12.515625 -13.859375 C 12.578125 -14.679688 12.40625 -15.359375 12 -15.890625 C 11.59375 -16.421875 10.976562 -16.722656 10.15625 -16.796875 C 9.488281 -16.847656 8.90625 -16.78125 8.40625 -16.59375 C 7.914062 -16.40625 7.445312 -16.1875 7 -15.9375 C 6.5625 -15.695312 6.117188 -15.484375 5.671875 -15.296875 C 5.234375 -15.109375 4.75 -15.035156 4.21875 -15.078125 C 3.644531 -15.117188 3.164062 -15.335938 2.78125 -15.734375 C 2.40625 -16.140625 2.242188 -16.632812 2.296875 -17.21875 C 2.359375 -18.082031 2.675781 -18.851562 3.25 -19.53125 C 3.820312 -20.21875 4.515625 -20.773438 5.328125 -21.203125 C 6.148438 -21.628906 7.023438 -21.941406 7.953125 -22.140625 C 8.890625 -22.335938 9.742188 -22.40625 10.515625 -22.34375 C 11.222656 -22.289062 11.925781 -22.148438 12.625 -21.921875 C 13.332031 -21.691406 13.988281 -21.375 14.59375 -20.96875 C 15.195312 -20.5625 15.734375 -20.078125 16.203125 -19.515625 C 16.679688 -18.960938 17.054688 -18.332031 17.328125 -17.625 C 17.722656 -16.613281 18.023438 -15.546875 18.234375 -14.421875 C 18.441406 -13.296875 18.570312 -12.148438 18.625 -10.984375 C 18.6875 -9.828125 18.695312 -8.671875 18.65625 -7.515625 C 18.625 -6.367188 18.5625 -5.253906 18.46875 -4.171875 Z M 12.25 -5.9375 L 12.328125 -8.640625 C 12.273438 -8.648438 12.222656 -8.660156 12.171875 -8.671875 C 12.128906 -8.691406 12.082031 -8.703125 12.03125 -8.703125 C 11.6875 -8.734375 11.25 -8.679688 10.71875 -8.546875 C 10.1875 -8.410156 9.664062 -8.207031 9.15625 -7.9375 C 8.65625 -7.675781 8.226562 -7.375 7.875 -7.03125 C 7.519531 -6.695312 7.328125 -6.332031 7.296875 -5.9375 C 7.265625 -5.5625 7.375 -5.296875 7.625 -5.140625 C 7.875 -4.992188 8.171875 -4.90625 8.515625 -4.875 C 9.097656 -4.832031 9.734375 -4.9375 10.421875 -5.1875 C 11.117188 -5.4375 11.726562 -5.6875 12.25 -5.9375 Z M 12.25 -5.9375 "/></g></g></g><g fill="#fffefa" fill-opacity="1"><g transform="translate(235.87531, 187.376164)"><g><path d="M 5.171875 -25.078125 C 5.378906 -23.648438 5.523438 -22.210938 5.609375 -20.765625 C 5.691406 -19.328125 5.835938 -17.882812 6.046875 -16.4375 C 6.304688 -14.570312 6.625 -12.71875 7 -10.875 C 7.382812 -9.03125 7.707031 -7.15625 7.96875 -5.25 C 8.039062 -4.78125 8.09375 -4.25 8.125 -3.65625 C 8.15625 -3.0625 8.101562 -2.5 7.96875 -1.96875 C 7.84375 -1.4375 7.609375 -0.972656 7.265625 -0.578125 C 6.929688 -0.191406 6.429688 0.046875 5.765625 0.140625 C 5.140625 0.234375 4.550781 0.00390625 4 -0.546875 C 3.457031 -1.097656 2.960938 -1.832031 2.515625 -2.75 C 2.078125 -3.664062 1.675781 -4.695312 1.3125 -5.84375 C 0.957031 -7 0.65625 -8.128906 0.40625 -9.234375 C 0.15625 -10.335938 -0.0507812 -11.351562 -0.21875 -12.28125 C -0.394531 -13.207031 -0.515625 -13.894531 -0.578125 -14.34375 C -0.640625 -14.84375 -0.71875 -15.566406 -0.8125 -16.515625 C -0.914062 -17.472656 -0.976562 -18.507812 -1 -19.625 C -1.019531 -20.75 -1 -21.894531 -0.9375 -23.0625 C -0.882812 -24.226562 -0.738281 -25.304688 -0.5 -26.296875 C -0.257812 -27.285156 0.0703125 -28.109375 0.5 -28.765625 C 0.9375 -29.429688 1.503906 -29.816406 2.203125 -29.921875 C 2.773438 -30.003906 3.238281 -29.875 3.59375 -29.53125 C 3.957031 -29.1875 4.242188 -28.753906 4.453125 -28.234375 C 4.660156 -27.710938 4.816406 -27.160156 4.921875 -26.578125 C 5.035156 -25.992188 5.117188 -25.492188 5.171875 -25.078125 Z M 5.171875 -25.078125 "/></g></g></g><g fill="#fffefa" fill-opacity="1"><g transform="translate(253.423359, 184.534217)"><g><path d="M 14.296875 -12.828125 C 14.609375 -11.984375 14.644531 -11.054688 14.40625 -10.046875 C 14.175781 -9.046875 13.769531 -8.078125 13.1875 -7.140625 C 12.613281 -6.203125 11.941406 -5.367188 11.171875 -4.640625 C 10.398438 -3.910156 9.628906 -3.40625 8.859375 -3.125 C 7.535156 -2.632812 6.234375 -2.53125 4.953125 -2.8125 C 3.679688 -3.09375 2.507812 -3.613281 1.4375 -4.375 C 0.363281 -5.144531 -0.578125 -6.078125 -1.390625 -7.171875 C -2.210938 -8.273438 -2.835938 -9.410156 -3.265625 -10.578125 C -3.722656 -11.816406 -4.039062 -13.207031 -4.21875 -14.75 C -4.394531 -16.300781 -4.347656 -17.804688 -4.078125 -19.265625 C -3.804688 -20.722656 -3.273438 -22.050781 -2.484375 -23.25 C -1.703125 -24.445312 -0.566406 -25.320312 0.921875 -25.875 C 1.765625 -26.1875 2.625 -26.335938 3.5 -26.328125 C 4.382812 -26.328125 5.207031 -26.171875 5.96875 -25.859375 C 6.738281 -25.546875 7.429688 -25.09375 8.046875 -24.5 C 8.660156 -23.914062 9.128906 -23.175781 9.453125 -22.28125 C 9.890625 -21.113281 10.046875 -19.925781 9.921875 -18.71875 C 9.804688 -17.507812 9.472656 -16.378906 8.921875 -15.328125 C 8.378906 -14.285156 7.660156 -13.332031 6.765625 -12.46875 C 5.867188 -11.613281 4.867188 -10.957031 3.765625 -10.5 C 4.117188 -9.820312 4.597656 -9.410156 5.203125 -9.265625 C 5.816406 -9.117188 6.457031 -9.164062 7.125 -9.40625 C 7.625 -9.59375 8.0625 -9.894531 8.4375 -10.3125 C 8.820312 -10.738281 9.179688 -11.191406 9.515625 -11.671875 C 9.847656 -12.148438 10.1875 -12.59375 10.53125 -13 C 10.875 -13.414062 11.269531 -13.707031 11.71875 -13.875 C 12.21875 -14.0625 12.722656 -14.066406 13.234375 -13.890625 C 13.742188 -13.710938 14.097656 -13.359375 14.296875 -12.828125 Z M 4.890625 -19.734375 C 4.773438 -20.054688 4.5625 -20.359375 4.25 -20.640625 C 3.945312 -20.929688 3.609375 -21.003906 3.234375 -20.859375 C 2.691406 -20.660156 2.285156 -20.347656 2.015625 -19.921875 C 1.742188 -19.503906 1.566406 -19.03125 1.484375 -18.5 C 1.398438 -17.976562 1.378906 -17.441406 1.421875 -16.890625 C 1.460938 -16.335938 1.550781 -15.847656 1.6875 -15.421875 C 2.007812 -15.628906 2.390625 -15.882812 2.828125 -16.1875 C 3.265625 -16.488281 3.660156 -16.820312 4.015625 -17.1875 C 4.378906 -17.5625 4.65625 -17.96875 4.84375 -18.40625 C 5.039062 -18.84375 5.054688 -19.285156 4.890625 -19.734375 Z M 4.890625 -19.734375 "/></g></g></g><g fill="#fffefa" fill-opacity="1"><g transform="translate(277.141372, 174.561293)"><g><path d="M -1.3125 -25.328125 C -0.894531 -24.679688 -0.796875 -24.0625 -1.015625 -23.46875 C -1.234375 -22.882812 -1.515625 -22.28125 -1.859375 -21.65625 C -2.210938 -21.03125 -2.484375 -20.382812 -2.671875 -19.71875 C -2.859375 -19.0625 -2.703125 -18.351562 -2.203125 -17.59375 C -1.941406 -17.195312 -1.617188 -16.914062 -1.234375 -16.75 C -0.859375 -16.59375 -0.457031 -16.488281 -0.03125 -16.4375 C 0.394531 -16.382812 0.851562 -16.347656 1.34375 -16.328125 C 1.84375 -16.304688 2.332031 -16.226562 2.8125 -16.09375 C 3.289062 -15.96875 3.769531 -15.742188 4.25 -15.421875 C 4.726562 -15.109375 5.175781 -14.628906 5.59375 -13.984375 C 6.207031 -13.054688 6.570312 -11.984375 6.6875 -10.765625 C 6.800781 -9.554688 6.71875 -8.359375 6.4375 -7.171875 C 6.164062 -5.984375 5.703125 -4.875 5.046875 -3.84375 C 4.390625 -2.8125 3.601562 -1.992188 2.6875 -1.390625 C 2.3125 -1.148438 1.914062 -0.929688 1.5 -0.734375 C 1.09375 -0.535156 0.691406 -0.414062 0.296875 -0.375 C -0.0976562 -0.332031 -0.488281 -0.382812 -0.875 -0.53125 C -1.269531 -0.6875 -1.613281 -0.984375 -1.90625 -1.421875 C -2.3125 -2.046875 -2.503906 -2.609375 -2.484375 -3.109375 C -2.460938 -3.617188 -2.328125 -4.097656 -2.078125 -4.546875 C -1.835938 -4.992188 -1.535156 -5.410156 -1.171875 -5.796875 C -0.816406 -6.191406 -0.503906 -6.597656 -0.234375 -7.015625 C 0.0351562 -7.429688 0.203125 -7.851562 0.265625 -8.28125 C 0.335938 -8.707031 0.210938 -9.160156 -0.109375 -9.640625 C -0.410156 -10.109375 -0.910156 -10.46875 -1.609375 -10.71875 C -2.304688 -10.976562 -3.0625 -11.242188 -3.875 -11.515625 C -4.6875 -11.785156 -5.488281 -12.125 -6.28125 -12.53125 C -7.070312 -12.9375 -7.722656 -13.523438 -8.234375 -14.296875 C -8.859375 -15.242188 -9.238281 -16.25 -9.375 -17.3125 C -9.519531 -18.375 -9.460938 -19.421875 -9.203125 -20.453125 C -8.953125 -21.492188 -8.519531 -22.460938 -7.90625 -23.359375 C -7.300781 -24.253906 -6.53125 -25.007812 -5.59375 -25.625 C -5.238281 -25.851562 -4.863281 -26.046875 -4.46875 -26.203125 C -4.082031 -26.359375 -3.703125 -26.441406 -3.328125 -26.453125 C -2.953125 -26.460938 -2.59375 -26.382812 -2.25 -26.21875 C -1.90625 -26.050781 -1.59375 -25.753906 -1.3125 -25.328125 Z M -1.3125 -25.328125 "/></g></g></g><g clip-path="url(#445251505c)"><path fill="#ffd400" d="M 219.71875 112.769531 C 214.183594 107.074219 213.859375 99.410156 213.855469 99.335938 L 213.105469 99.335938 C 213.101562 99.410156 212.785156 107.066406 207.242188 112.769531 C 204.042969 116.0625 200.996094 117.34375 196.378906 117.34375 L 196.378906 118.089844 C 200.714844 118.089844 204.511719 119.828125 207.992188 123.410156 C 212.355469 127.898438 213.023438 133.105469 213.105469 135.152344 C 213.082031 135.75 213.105469 136.097656 213.105469 136.113281 L 213.855469 136.113281 C 213.855469 136.097656 213.878906 135.75 213.855469 135.152344 C 213.9375 133.105469 214.605469 127.898438 218.96875 123.410156 C 222.449219 119.828125 226.246094 118.089844 230.582031 118.089844 L 230.582031 117.34375 C 225.964844 117.34375 222.917969 116.0625 219.71875 112.769531 " fill-opacity="1" fill-rule="nonzero"/></g><g clip-path="url(#2fc475f2c6)"><path fill="#ffd400" d="M 202.253906 98.332031 C 199.566406 95.566406 199.40625 91.84375 199.40625 91.808594 L 199.042969 91.808594 C 199.042969 91.84375 198.886719 95.5625 196.195312 98.332031 C 194.640625 99.929688 193.160156 100.554688 190.917969 100.554688 L 190.917969 100.914062 C 193.023438 100.914062 194.867188 101.761719 196.558594 103.5 C 198.675781 105.679688 199 108.207031 199.042969 109.203125 C 199.03125 109.492188 199.042969 109.660156 199.042969 109.667969 L 199.40625 109.667969 C 199.40625 109.660156 199.417969 109.492188 199.40625 109.203125 C 199.449219 108.207031 199.769531 105.679688 201.886719 103.5 C 203.578125 101.761719 205.425781 100.914062 207.53125 100.914062 L 207.53125 100.554688 C 205.285156 100.554688 203.808594 99.929688 202.253906 98.332031 " fill-opacity="1" fill-rule="nonzero"/></g><g clip-path="url(#f6715388a8)"><path fill="#ffd400" d="M 219.429688 88.152344 C 217.554688 86.222656 217.445312 83.632812 217.441406 83.605469 L 217.1875 83.605469 C 217.1875 83.632812 217.082031 86.222656 215.207031 88.152344 C 214.125 89.265625 213.09375 89.699219 211.527344 89.699219 L 211.527344 89.953125 C 212.996094 89.953125 214.28125 90.539062 215.460938 91.753906 C 216.933594 93.269531 217.160156 95.035156 217.1875 95.726562 C 217.183594 95.929688 217.1875 96.046875 217.1875 96.050781 L 217.441406 96.050781 C 217.441406 96.046875 217.453125 95.929688 217.441406 95.726562 C 217.472656 95.035156 217.699219 93.269531 219.171875 91.753906 C 220.351562 90.539062 221.636719 89.953125 223.105469 89.953125 L 223.105469 89.699219 C 221.542969 89.699219 220.511719 89.265625 219.429688 88.152344 " fill-opacity="1" fill-rule="nonzero"/></g><g fill="#fffefa" fill-opacity="1"><g transform="translate(132.691933, 290.199737)"><g><path d="M 3.558594 -7.976562 C 2.121094 -7.976562 0.953125 -7.128906 0.953125 -5.78125 C 0.953125 -4.488281 1.914062 -3.933594 3.296875 -3.613281 C 4.667969 -3.296875 5.214844 -2.867188 5.214844 -1.914062 C 5.214844 -1.097656 4.488281 -0.613281 3.59375 -0.613281 C 2.574219 -0.613281 1.859375 -1.191406 1.632812 -2.222656 L 0.589844 -2.222656 C 0.757812 -0.714844 1.847656 0.160156 3.570312 0.160156 C 5.078125 0.160156 6.253906 -0.726562 6.253906 -2.097656 C 6.253906 -3.421875 5.394531 -4.125 3.671875 -4.523438 C 2.480469 -4.792969 1.996094 -5.15625 1.996094 -6.007812 C 1.996094 -6.820312 2.652344 -7.207031 3.480469 -7.207031 C 4.464844 -7.207031 5.042969 -6.640625 5.132812 -5.65625 L 6.175781 -5.65625 C 6.027344 -6.992188 5.179688 -7.976562 3.558594 -7.976562 Z M 3.558594 -7.976562 "/></g></g></g><g fill="#fffefa" fill-opacity="1"><g transform="translate(141.384706, 290.199737)"><g><path d="M 7.390625 -7.820312 L 6.414062 -7.820312 L 6.414062 -4.238281 L 2.109375 -4.238281 L 2.109375 -7.820312 L 1.132812 -7.820312 L 1.132812 0 L 2.109375 0 L 2.109375 -3.421875 L 6.414062 -3.421875 L 6.414062 0 L 7.390625 0 Z M 7.390625 -7.820312 "/></g></g></g><g fill="#fffefa" fill-opacity="1"><g transform="translate(151.72061, 290.199737)"><g><path d="M 4.226562 -7.976562 C 1.847656 -7.976562 0.53125 -6.300781 0.53125 -3.910156 C 0.53125 -1.53125 1.847656 0.160156 4.226562 0.160156 C 6.605469 0.160156 7.921875 -1.53125 7.921875 -3.910156 C 7.921875 -6.300781 6.605469 -7.976562 4.226562 -7.976562 Z M 4.226562 -0.613281 C 2.582031 -0.613281 1.621094 -1.882812 1.621094 -3.910156 C 1.621094 -5.949219 2.582031 -7.207031 4.226562 -7.207031 C 5.871094 -7.207031 6.832031 -5.949219 6.832031 -3.910156 C 6.832031 -1.882812 5.871094 -0.613281 4.226562 -0.613281 Z M 4.226562 -0.613281 "/></g></g></g><g fill="#fffefa" fill-opacity="1"><g transform="translate(162.135846, 290.199737)"><g><path d="M 6.277344 -2.050781 C 6.210938 -2.832031 5.902344 -3.546875 5.269531 -3.839844 C 5.996094 -4.070312 6.664062 -4.65625 6.664062 -5.6875 C 6.664062 -7.003906 5.847656 -7.625 4.714844 -7.773438 C 4.363281 -7.820312 4.089844 -7.820312 3.695312 -7.820312 L 1.132812 -7.820312 L 1.132812 0 L 2.109375 0 L 2.109375 -3.367188 L 3.582031 -3.367188 C 3.761719 -3.367188 3.953125 -3.367188 4.136719 -3.355469 C 4.90625 -3.296875 5.214844 -2.765625 5.304688 -1.960938 C 5.40625 -0.996094 5.507812 -0.5 5.722656 0 L 6.800781 0 C 6.480469 -0.417969 6.367188 -1.03125 6.277344 -2.050781 Z M 2.109375 -4.160156 L 2.109375 -7.027344 L 3.695312 -7.027344 C 4.046875 -7.027344 4.261719 -7.015625 4.476562 -6.980469 C 5.203125 -6.867188 5.621094 -6.472656 5.621094 -5.597656 C 5.621094 -4.714844 5.089844 -4.25 4.363281 -4.183594 C 4.148438 -4.160156 3.953125 -4.160156 3.605469 -4.160156 Z M 2.109375 -4.160156 "/></g></g></g><g fill="#fffefa" fill-opacity="1"><g transform="translate(171.213905, 290.199737)"><g><path d="M 6.933594 -7.027344 L 6.933594 -7.820312 L 0.386719 -7.820312 L 0.386719 -7.027344 L 3.171875 -7.027344 L 3.171875 0 L 4.148438 0 L 4.148438 -7.027344 Z M 6.933594 -7.027344 "/></g></g></g><g fill="#fffefa" fill-opacity="1"><g transform="translate(180.212634, 290.199737)"><g/></g></g><g fill="#fffefa" fill-opacity="1"><g transform="translate(184.723906, 290.199737)"><g><path d="M 3.558594 -7.976562 C 2.121094 -7.976562 0.953125 -7.128906 0.953125 -5.78125 C 0.953125 -4.488281 1.914062 -3.933594 3.296875 -3.613281 C 4.667969 -3.296875 5.214844 -2.867188 5.214844 -1.914062 C 5.214844 -1.097656 4.488281 -0.613281 3.59375 -0.613281 C 2.574219 -0.613281 1.859375 -1.191406 1.632812 -2.222656 L 0.589844 -2.222656 C 0.757812 -0.714844 1.847656 0.160156 3.570312 0.160156 C 5.078125 0.160156 6.253906 -0.726562 6.253906 -2.097656 C 6.253906 -3.421875 5.394531 -4.125 3.671875 -4.523438 C 2.480469 -4.792969 1.996094 -5.15625 1.996094 -6.007812 C 1.996094 -6.820312 2.652344 -7.207031 3.480469 -7.207031 C 4.464844 -7.207031 5.042969 -6.640625 5.132812 -5.65625 L 6.175781 -5.65625 C 6.027344 -6.992188 5.179688 -7.976562 3.558594 -7.976562 Z M 3.558594 -7.976562 "/></g></g></g><g fill="#fffefa" fill-opacity="1"><g transform="translate(193.416678, 290.199737)"><g><path d="M 6.933594 -7.027344 L 6.933594 -7.820312 L 0.386719 -7.820312 L 0.386719 -7.027344 L 3.171875 -7.027344 L 3.171875 0 L 4.148438 0 L 4.148438 -7.027344 Z M 6.933594 -7.027344 "/></g></g></g><g fill="#fffefa" fill-opacity="1"><g transform="translate(202.415407, 290.199737)"><g><path d="M 4.226562 -7.976562 C 1.847656 -7.976562 0.53125 -6.300781 0.53125 -3.910156 C 0.53125 -1.53125 1.847656 0.160156 4.226562 0.160156 C 6.605469 0.160156 7.921875 -1.53125 7.921875 -3.910156 C 7.921875 -6.300781 6.605469 -7.976562 4.226562 -7.976562 Z M 4.226562 -0.613281 C 2.582031 -0.613281 1.621094 -1.882812 1.621094 -3.910156 C 1.621094 -5.949219 2.582031 -7.207031 4.226562 -7.207031 C 5.871094 -7.207031 6.832031 -5.949219 6.832031 -3.910156 C 6.832031 -1.882812 5.871094 -0.613281 4.226562 -0.613281 Z M 4.226562 -0.613281 "/></g></g></g><g fill="#fffefa" fill-opacity="1"><g transform="translate(212.83064, 290.199737)"><g><path d="M 6.277344 -2.050781 C 6.210938 -2.832031 5.902344 -3.546875 5.269531 -3.839844 C 5.996094 -4.070312 6.664062 -4.65625 6.664062 -5.6875 C 6.664062 -7.003906 5.847656 -7.625 4.714844 -7.773438 C 4.363281 -7.820312 4.089844 -7.820312 3.695312 -7.820312 L 1.132812 -7.820312 L 1.132812 0 L 2.109375 0 L 2.109375 -3.367188 L 3.582031 -3.367188 C 3.761719 -3.367188 3.953125 -3.367188 4.136719 -3.355469 C 4.90625 -3.296875 5.214844 -2.765625 5.304688 -1.960938 C 5.40625 -0.996094 5.507812 -0.5 5.722656 0 L 6.800781 0 C 6.480469 -0.417969 6.367188 -1.03125 6.277344 -2.050781 Z M 2.109375 -4.160156 L 2.109375 -7.027344 L 3.695312 -7.027344 C 4.046875 -7.027344 4.261719 -7.015625 4.476562 -6.980469 C 5.203125 -6.867188 5.621094 -6.472656 5.621094 -5.597656 C 5.621094 -4.714844 5.089844 -4.25 4.363281 -4.183594 C 4.148438 -4.160156 3.953125 -4.160156 3.605469 -4.160156 Z M 2.109375 -4.160156 "/></g></g></g><g fill="#fffefa" fill-opacity="1"><g transform="translate(221.908699, 290.199737)"><g><path d="M 2.109375 0 L 2.109375 -7.820312 L 1.132812 -7.820312 L 1.132812 0 Z M 2.109375 0 "/></g></g></g><g fill="#fffefa" fill-opacity="1"><g transform="translate(226.963909, 290.199737)"><g><path d="M 6.335938 -0.792969 L 2.109375 -0.792969 L 2.109375 -3.511719 L 5.882812 -3.511719 L 5.882812 -4.304688 L 2.109375 -4.304688 L 2.109375 -7.027344 L 6.222656 -7.027344 L 6.222656 -7.820312 L 1.132812 -7.820312 L 1.132812 0 L 6.335938 0 Z M 6.335938 -0.792969 "/></g></g></g><g fill="#fffefa" fill-opacity="1"><g transform="translate(235.679346, 290.199737)"><g><path d="M 3.558594 -7.976562 C 2.121094 -7.976562 0.953125 -7.128906 0.953125 -5.78125 C 0.953125 -4.488281 1.914062 -3.933594 3.296875 -3.613281 C 4.667969 -3.296875 5.214844 -2.867188 5.214844 -1.914062 C 5.214844 -1.097656 4.488281 -0.613281 3.59375 -0.613281 C 2.574219 -0.613281 1.859375 -1.191406 1.632812 -2.222656 L 0.589844 -2.222656 C 0.757812 -0.714844 1.847656 0.160156 3.570312 0.160156 C 5.078125 0.160156 6.253906 -0.726562 6.253906 -2.097656 C 6.253906 -3.421875 5.394531 -4.125 3.671875 -4.523438 C 2.480469 -4.792969 1.996094 -5.15625 1.996094 -6.007812 C 1.996094 -6.820312 2.652344 -7.207031 3.480469 -7.207031 C 4.464844 -7.207031 5.042969 -6.640625 5.132812 -5.65625 L 6.175781 -5.65625 C 6.027344 -6.992188 5.179688 -7.976562 3.558594 -7.976562 Z M 3.558594 -7.976562 "/></g></g></g></svg>