<?xml version="1.0" encoding="UTF-8"?>
<svg width="1200pt" height="1200pt" version="1.1" viewBox="0 0 1200 1200" xmlns="http://www.w3.org/2000/svg">
 <g>
  <path d="m407.04 430.08c-29.254 0.09375-58.398 3.5156-86.879 10.203-26.879 5.8789-57.719 15.48-75.84 37.559-3.8008 0.09375-7.4023 1.7109-9.9961 4.4844-2.5977 2.7773-3.9648 6.4805-3.8047 10.277 2.0391 33 15 64.559 23.398 96h0.003906c9.082 33.477 16.215 67.453 21.359 101.76 10.801 76.199-1.6797 152.04-2.2812 228-0.10547 3.8164 1.0312 7.5664 3.2383 10.68 0.70312 3.2383 2.7148 6.043 5.5547 7.7461 2.8398 1.7031 6.2617 2.1602 9.4453 1.2539 3.5156-0.49609 6.9727-1.3398 10.32-2.5195 3.7188-1.8008 7.0781-4.1992 10.68-6.3594 6.2305-3.8555 12.684-7.3438 19.32-10.441 14.59-6.4219 29.785-11.367 45.363-14.758 13.156-2.6328 26.539-3.957 39.957-3.9609h10.199c4.1992 0 8.3984 1.0781 12 1.8008 45.121 7.6797 88.801 22.801 134.28 29.16 16.68 2.3984 39.719 5.7617 52.32-7.4414 3.2617-2.4766 5.5898-5.9883 6.6016-9.9609 3.1211-1.4414 6.2383-3 9.4805-4.3203 11.648-4.9844 23.688-8.9961 36-12 29.184-6.6289 59.195-8.8516 89.039-6.5977 60 3.6016 111.72 31.801 165.36 54.84 5.3398 2.2148 11.375 2.0039 16.547-0.57812 5.168-2.5859 8.9609-7.2891 10.391-12.891 1.4336-5.5977 0.35938-11.543-2.9375-16.293v-5.2812s0.83984-12.84 0-7.1992v-12c-1.3203-30-2.7617-60-3.9609-90-3.8203-71.438-3.5-143.04 0.96094-214.44 0.96094-12 2.8789-29.398 5.5195-43.559v-0.003907c1.0859-6.3164 2.5273-12.566 4.3203-18.719l1.0781-3.3594c0.69141-1.7578 1.2539-3.5625 1.6836-5.3984 1.5156-2.8008 2.1875-5.9805 1.9336-9.1562-0.25781-3.1719-1.4297-6.2031-3.375-8.7266-13.559-24.719-42.84-41.879-66.84-53.879-26.504-12.996-54.828-21.895-84-26.398-60.035-10.16-121.73-2.2266-177.24 22.797-21.309 9.3164-40.93 22.09-58.078 37.801-22.809-14.539-47.867-25.203-74.16-31.559-31.406-9.9531-64.031-15.527-96.961-16.562zm164.64 461.28c-23.16-3.9609-45.961-9.6016-68.762-15.121-20.879-4.9219-41.879-10.441-63.121-13.32l0.003906 0.003906c-24.695-2.4961-49.633-0.62891-73.68 5.5195-17.707 3.9844-34.812 10.277-50.883 18.719-1.1953 0.56641-2.3594 1.207-3.4766 1.918 2.5195-68.039 11.039-135.72 0.96094-204h-0.003906c-5.4805-35.691-12.895-71.066-22.199-105.96-5.8164-28.207-14.711-55.691-26.52-81.961 21.84-10.672 45.195-17.914 69.238-21.48 24.957-5.1055 50.367-7.6797 75.84-7.6797 50.672 2.1211 100.18 15.832 144.72 40.078-0.11328 1.0391-0.11328 2.0859 0 3.1211-0.082031 1.2383-0.082031 2.4805 0 3.7227 0.71875 9.2383 0-1.5586 0.83984 5.0391 0 3.8398 1.0781 7.8008 1.6797 12 1.4414 10.32 2.7617 20.762 4.4414 31.078 4.8008 27.84 8.5195 55.922 12 84 7.8008 63.359 14.398 126.84 19.32 190.44 1.4414 18.719 2.8789 37.441 3.6016 56.16h-0.003906c-7.9492-0.17188-15.863-1.0938-23.641-2.7617zm70.32-412.92c23.633-11.023 48.73-18.582 74.52-22.441 51.34-8.8438 104.13-2.9805 152.28 16.922 12.859 5.5547 25.188 12.262 36.84 20.039 7.7695 5.6562 15.184 11.789 22.199 18.359-1.5586 4.8008-2.5195 9.7188-3.6016 14.281-2.7773 12.988-4.7812 26.133-6 39.359-3.6016 35.16-4.8008 70.559-5.1602 105.84 0 70.199 1.5586 140.64 6.1211 210.6 0 5.5195 0.60156 10.922 1.1992 16.32-50.758-21.723-100.8-43.324-157.68-45.723-32.348-2.0898-64.812 1.3594-96 10.199-11.582 3.3867-22.895 7.6367-33.84 12.723-1.9219-40.68-6.3594-81.359-10.441-121.8-6.2383-62.52-13.441-125.16-24-187.2h0.003906c-1.8789-18.035-6.3672-35.699-13.32-52.441 18.598-12 36.598-25.32 56.879-35.039z"/>
  <path d="m718.68 625.56c3.4062-0.15625 6.6719-1.4102 9.3086-3.5703 2.6406-2.1641 4.5078-5.1172 5.332-8.4297 0.70313-4 0.45703-8.1094-0.71875-12l-2.0391-4.1992-0.60156-0.96094-1.0781-2.5195h-0.003906c-0.78516-2.2344-1.4258-4.5195-1.918-6.8398-0.12109-1.9727-0.36328-3.9336-0.72266-5.8789v-2.3984c0.75-4.2344-0.16797-8.5938-2.5547-12.168-2.3867-3.5742-6.0625-6.0898-10.258-7.0195-4.1992-0.92969-8.5898-0.20312-12.266 2.0273-12 9.4805-10.559 26.039-6.9609 39.48 3.6016 13.438 10.082 24.359 24.48 24.477zm5.8789-42.602v-1.1992c0.12109 1.3203 0 1.5625 0 1.2031zm0-5.1602v1.1992c-0.23828-1.918-0.23828-2.9961 0-1.1953z"/>
  <path d="m783.96 640.8c4.1406 3.5859 9.8516 4.7539 15.066 3.0898 5.2188-1.668 9.1953-5.9297 10.492-11.25 0.73047-8.0508 0.082031-16.168-1.918-24-0.58203-7.6641-0.13672-15.371 1.3203-22.922 1.0117-4.7656-0.35156-9.7305-3.6641-13.309-3.3086-3.5781-8.1523-5.3242-12.984-4.6797-4.832 0.64062-9.0508 3.5898-11.312 7.9102-10.32 16.438-15.723 51.48 3 65.16z"/>
  <path d="m691.8 769.08c4.5312-10.672 11.617-20.07 20.641-27.359 8.2344-6.4414 18.242-10.207 28.68-10.797 9.457-0.79297 18.906 1.5703 26.879 6.7188 9.5703 7.4492 15.859 18.344 17.52 30.359 1.6914 4.6992 5.1289 8.5703 9.5977 10.805 4.4688 2.2344 9.625 2.6641 14.402 1.1953 4.6484-1.7617 8.4609-5.2109 10.688-9.6562 2.2227-4.4492 2.6914-9.5664 1.3125-14.344-3.9375-18.934-14.637-35.781-30.098-47.398-15.461-11.617-34.621-17.207-53.902-15.723-18.715 1.5117-36.359 9.3398-50.039 22.199-13.934 13.648-20.832 32.934-18.719 52.32 0.83984 13.562 19.199 13.203 23.039 1.6797z"/>
  <path d="m482.64 697.8c-6.2383 6.7188-8.7617 14.879-17.398 19.078h-0.003907c-7.5742 3.1914-15.797 4.5508-24 3.9609-20.773-2.1797-41.047-7.7734-60-16.559-3.6406-1.7852-7.793-2.2188-11.727-1.2305-3.9297 0.98828-7.3867 3.3359-9.75 6.6289-2.3828 3.332-3.4531 7.4258-3.0117 11.496 0.44141 4.0742 2.3672 7.8398 5.4102 10.586 25.066 18.879 55.879 28.543 87.238 27.359 28.922-1.1992 63.121-18 65.039-50.281 0.24219-16.199-22.438-21.602-31.797-11.039z"/>
  <path d="m396 678.24c4.0312 1.9492 8.7852 1.6328 12.523-0.82422 3.7383-2.4609 5.9102-6.7031 5.7148-11.176-1.9414-10.664-4.668-21.172-8.1602-31.438-1.5117-11.227-4.2461-22.25-8.1562-32.879-4.6797-10.68-22.199-9-21.238 3.9609 0.95703 20.879-4.6836 61.676 19.316 72.355z"/>
  <path d="m442.32 660c6.6719 3.2695 14.734 0.67188 18.238-5.8789 4.6797-8.8789 0-18.121-1.4414-27.359h0.003906c-1.6367-8.8438-2.6797-17.781-3.1211-26.762-1.3398-5.2734-5.8906-9.1094-11.312-9.543-5.4258-0.43359-10.523 2.6289-12.688 7.6211-2.8164 10.844-3.7891 22.078-2.8789 33.242 0.35938 10.199 2.8789 24.602 13.199 28.68z"/>
  <path d="m540.6 329.88c-2.2812-3.3438-5.5781-5.8711-9.3984-7.2109-3.8203-1.3398-7.9727-1.418-11.844-0.22656-2.2148 0.68359-4.2578 1.8281-6 3.3594l-1.9219 1.8008h0.003906c-2.668 3.0781-4.2734 6.9375-4.5742 11-0.30469 4.0625 0.71094 8.1172 2.8945 11.559 9.1445 16.184 20.855 30.773 34.68 43.199 13.32 13.41 28.617 24.703 45.359 33.48 4.7344 2.2031 10.152 2.4219 15.051 0.60547 4.8945-1.8164 8.8594-5.5117 11.016-10.27 2.1562-4.7578 2.3164-10.18 0.45312-15.055 2.2578-1.1094 4.1367-2.8633 5.3984-5.043 1.8242-1.4414 3.5117-3.0469 5.043-4.7969 3.6836-4.0273 7.0156-8.3633 9.957-12.961 6.3594-10.199 12.719-20.16 19.922-29.641 17.453-23.27 37.148-44.773 58.801-64.199 3.3438-3.8164 5.0703-8.7852 4.8008-13.855-0.26953-5.0664-2.5117-9.8281-6.2422-13.266-3.8398-3.2891-8.7969-4.9766-13.848-4.707-5.0508 0.26953-9.8008 2.4688-13.273 6.1484-23.359 20.953-44.438 44.324-62.879 69.719-8.7031 10.652-16.191 22.246-22.32 34.559-2.0273 4.9453-3.3203 10.164-3.8398 15.48-0.30469 2.5508-0.30469 5.1289 0 7.6797-21.848-16.141-41.145-35.477-57.238-57.359z"/>
 </g>
</svg>
