<?xml version="1.0" encoding="UTF-8"?>
<svg width="1200pt" height="1200pt" version="1.1" viewBox="0 0 1200 1200" xmlns="http://www.w3.org/2000/svg">
 <g>
  <path d="m62.254 667.93v384.91c0 46.82 38.098 84.906 84.906 84.906h384.91c27.871 0 52.434-13.68 67.926-34.488 15.492 20.805 40.055 34.488 67.926 34.488h384.93c46.809 0 84.906-38.086 84.906-84.906v-384.91c0-46.82-38.098-84.906-84.906-84.906h-192.89c10.773-14.234 17.414-31.754 17.414-50.945v-384.91c0-46.82-38.098-84.906-84.906-84.906l-384.93 0.003906c-46.809 0-84.906 38.086-84.906 84.906v384.91c0 19.188 6.6406 36.711 17.414 50.945h-192.89c-46.805-0.003907-84.902 38.082-84.902 84.902zm469.81 435.85h-384.91c-28.082 0-50.945-22.852-50.945-50.945v-384.91c0-28.094 22.863-50.945 50.945-50.945h384.91c28.082 0 50.945 22.852 50.945 50.945v384.91c0 28.094-22.863 50.945-50.945 50.945zm67.492-486.79h0.86719c-0.13672 0.17969-0.29688 0.34375-0.43359 0.52344-0.13281-0.17969-0.29688-0.33984-0.43359-0.52344zm504.23 50.945v384.91c0 28.094-22.863 50.945-50.945 50.945l-384.93-0.003906c-28.082 0-50.945-22.852-50.945-50.945v-384.91c0-28.094 22.863-50.945 50.945-50.945h384.93c28.078 0.003907 50.941 22.855 50.941 50.949zm-747.19-135.85v-384.91c0-28.094 22.863-50.945 50.945-50.945h384.93c28.082 0 50.945 22.852 50.945 50.945v384.91c0 28.094-22.863 50.945-50.945 50.945h-384.93c-28.086 0-50.949-22.852-50.949-50.945z"/>
  <path d="m452.16 797.43c0-44.078-35.863-79.93-79.93-79.93h-128.15c-9.375 0-16.98 7.6055-16.98 16.98s7.6055 16.98 16.98 16.98h14.371l-0.003906 108.92v108.92h-14.371c-9.375 0-16.98 7.6055-16.98 16.98s7.6055 16.98 16.98 16.98h128.15c44.066 0 79.93-35.852 79.93-79.93 0-25.68-12.387-48.316-31.262-62.949 18.879-14.637 31.266-37.27 31.266-62.949zm-33.961 125.9c0 25.352-20.629 45.969-45.969 45.969h-79.82v-91.938h79.82c25.336 0 45.969 20.617 45.969 45.969zm-125.79-79.934v-91.938h79.82c25.34 0 45.969 20.617 45.969 45.969 0 25.352-20.633 45.969-45.969 45.969z"/>
  <path d="m744.75 860.5c0 78.715 64.164 142.76 143.01 142.76 28.965 0 56.957-8.7461 80.902-25.285 7.7148-5.3281 9.6641-15.898 4.332-23.625-5.3047-7.6953-15.898-9.6719-23.613-4.3242-18.262 12.602-39.578 19.27-61.621 19.27-60.141 0-109.05-48.809-109.05-108.8 0-60.121 48.91-109.04 109.05-109.04 22.043 0 43.359 6.668 61.602 19.281 7.7812 5.3281 18.328 3.4062 23.637-4.3242 5.3281-7.7148 3.3828-18.297-4.3125-23.625-23.969-16.551-51.938-25.293-80.926-25.293-78.848 0-143.01 64.156-143.01 143z"/>
  <path d="m666.95 385.69 43.59 87.402c4.1797 8.4023 14.395 11.797 22.773 7.6289 8.3789-4.1914 11.809-14.383 7.6055-22.773l-47.191-94.629c-0.40234-1.1914-0.98828-2.2227-1.6328-3.2773l-76.742-153.89c-2.875-5.7617-8.7578-9.4062-15.191-9.4062-6.4336 0-12.316 3.6367-15.191 9.3867l-76.621 153.24c-0.91797 1.3516-1.668 2.7461-2.168 4.3359l-47.113 94.227c-4.1992 8.3906-0.79687 18.586 7.6055 22.785 2.4336 1.2148 5.0195 1.7891 7.5625 1.7891 6.2344 0 12.227-3.4375 15.211-9.3867l43.711-87.426zm-66.809-133.96 49.871 99.996h-99.867z"/>
 </g>
</svg>
